<svg width="128" height="128" version="1.1" xmlns="http://www.w3.org/2000/svg" desc="Created with imagetracer.js version 1.2.6" ><path fill="rgb(254,205,191)" stroke="rgb(254,205,191)" stroke-width="1" opacity="0.47058823529411764" d="M 7.5 1 L 20 1.5 L 7.5 2 L 7.5 1 Z " /><path fill="rgb(254,205,191)" stroke="rgb(254,205,191)" stroke-width="1" opacity="0.47058823529411764" d="M 101 1 L 115 1.5 L 102.5 2 L 101 3.5 L 96.5 14 L 96 12.5 L 101 1 Z " /><path fill="rgb(254,205,191)" stroke="rgb(254,205,191)" stroke-width="1" opacity="0.47058823529411764" d="M 8.5 6 L 11 11.5 L 10 11.5 L 8.5 6 Z " /><path fill="rgb(254,205,191)" stroke="rgb(254,205,191)" stroke-width="1" opacity="0.47058823529411764" d="M 117.5 11 L 118 12.5 L 116.5 15 L 116 13.5 L 117.5 11 Z " /><path fill="rgb(254,205,191)" stroke="rgb(254,205,191)" stroke-width="1" opacity="0.47058823529411764" d="M 11.5 13 L 13 16.5 L 12 16.5 L 11.5 13 Z " /><path fill="rgb(254,205,191)" stroke="rgb(254,205,191)" stroke-width="1" opacity="0.47058823529411764" d="M 95.5 15 L 96 16.5 L 94.5 19 L 94 17.5 L 95.5 15 Z " /><path fill="rgb(254,205,191)" stroke="rgb(254,205,191)" stroke-width="1" opacity="0.47058823529411764" d="M 33.5 17 L 35 20.5 L 34 20.5 L 33.5 17 Z " /><path fill="rgb(254,205,191)" stroke="rgb(254,205,191)" stroke-width="1" opacity="0.47058823529411764" d="M 13.5 18 L 18 28.5 L 17 28.5 L 13.5 18 Z " /><path fill="rgb(254,205,191)" stroke="rgb(254,205,191)" stroke-width="1" opacity="0.47058823529411764" d="M 93.5 20 L 94 21.5 L 91.5 26 L 91 24.5 L 93.5 20 Z " /><path fill="rgb(254,205,191)" stroke="rgb(254,205,191)" stroke-width="1" opacity="0.47058823529411764" d="M 112.5 23 L 113 24.5 L 111.5 27 L 111 25.5 L 112.5 23 Z " /><path fill="rgb(254,205,191)" stroke="rgb(254,205,191)" stroke-width="1" opacity="0.47058823529411764" d="M 18.5 30 L 22 38.5 L 21 38.5 L 18.5 30 Z " /><path fill="rgb(254,205,191)" stroke="rgb(254,205,191)" stroke-width="1" opacity="0.47058823529411764" d="M 22.5 40 L 23 67.5 L 25 71.5 L 24 71.5 L 22 67.5 L 22.5 40 Z " /><path fill="rgb(254,205,191)" stroke="rgb(254,205,191)" stroke-width="1" opacity="0.47058823529411764" d="M 105.5 65 L 106 67.5 L 104.5 70 L 104 68.5 L 105.5 65 Z " /><path fill="rgb(254,205,191)" stroke="rgb(254,205,191)" stroke-width="1" opacity="0.47058823529411764" d="M 25.5 73 L 30 83.5 L 29 83.5 L 25.5 73 Z " /><path fill="rgb(254,205,191)" stroke="rgb(254,205,191)" stroke-width="1" opacity="0.47058823529411764" d="M 30.5 85 L 35 92.5 L 32 90.5 L 30.5 85 Z " /><path fill="rgb(254,205,191)" stroke="rgb(254,205,191)" stroke-width="1" opacity="0.47058823529411764" d="M 95.5 90 L 93.5 93 L 95.5 90 Z " /><path fill="rgb(254,205,191)" stroke="rgb(254,205,191)" stroke-width="1" opacity="0.47058823529411764" d="M 36.5 93 L 37.5 95 L 36.5 93 Z " /><path fill="rgb(254,205,191)" stroke="rgb(254,205,191)" stroke-width="1" opacity="0.47058823529411764" d="M 91.5 93 L 90.5 95 L 91.5 93 Z " /><path fill="rgb(254,205,191)" stroke="rgb(254,205,191)" stroke-width="1" opacity="0.47058823529411764" d="M 38.5 96 L 39.5 98 L 38.5 96 Z " /><path fill="rgb(254,205,191)" stroke="rgb(254,205,191)" stroke-width="1" opacity="0.47058823529411764" d="M 89.5 96 L 88.5 98 L 89.5 96 Z " /><path fill="rgb(254,205,191)" stroke="rgb(254,205,191)" stroke-width="1" opacity="0.47058823529411764" d="M 87.5 99 L 85.5 102 L 87.5 99 Z " /><path fill="rgb(254,205,191)" stroke="rgb(254,205,191)" stroke-width="1" opacity="0.47058823529411764" d="M 41.5 100 L 42.5 102 L 41.5 100 Z " /><path fill="rgb(254,205,191)" stroke="rgb(254,205,191)" stroke-width="1" opacity="0.47058823529411764" d="M 44.5 116 L 45 122.5 L 44 122.5 L 44.5 116 Z " /><path fill="rgb(254,205,191)" stroke="rgb(254,205,191)" stroke-width="1" opacity="0.47058823529411764" d="M 83.5 116 L 84 122.5 L 83 122.5 L 83.5 116 Z " /><path fill="rgb(0,0,0)" stroke="rgb(0,0,0)" stroke-width="1" opacity="0" d="M 0 0 L 58 0.5 Q 50.9 1.9 48 7.5 Q 43.7 11.9 45 21 L 37.5 25 L 27 1 L 7.5 1 L 7 4.5 L 22 39.5 L 22 67.5 L 30 86.5 L 34.5 93 L 38 95.5 L 42.5 102 L 45 103.5 L 44 128 L 0 128 L 0 0 Z " /><path fill="rgb(0,0,0)" stroke="rgb(0,0,0)" stroke-width="1" opacity="0" d="M 70.5 0 L 128 0 L 128 128 L 84.5 128 L 84 127.5 L 84 116.5 L 83 115.5 L 83 103.5 L 88 99.5 L 92.5 93 L 96 90.5 L 106 67.5 L 106 39.5 L 120 7.5 L 121 1 L 101.5 1 L 101 2.5 L 90.5 25 L 83 19.5 L 82 10.5 L 75.5 3 L 70.5 1 L 70.5 0 Z " /><path fill="rgb(254,203,190)" stroke="rgb(254,203,190)" stroke-width="1" opacity="0.996078431372549" d="M 7.5 2 L 20.5 2 L 21 3.5 L 36 39.5 L 36 52.5 Q 34.2 57.5 27 56 L 27 64.5 L 36 84.5 L 36 90.5 Q 34.5 93.5 33 90.5 L 23 67.5 L 23 40.5 L 7.5 2 Z " /><path fill="rgb(254,203,190)" stroke="rgb(254,203,190)" stroke-width="1" opacity="0.996078431372549" d="M 102.5 2 L 115 2.5 L 99 40.5 L 99 67.5 L 88.5 91 L 86 89.5 L 86 84.5 L 95 64.5 L 96 48.5 L 93.5 47 L 92 48.5 L 92 60 L 94 60.5 L 90.5 61 L 87 58.5 L 86 56.5 L 86 40.5 L 99 7.5 L 102.5 2 Z " /><path fill="rgb(115,101,114)" stroke="rgb(115,101,114)" stroke-width="1" opacity="0.9764705882352941" d="M 58.5 0 Q 75 -2 80 7.5 Q 84 11 83 19.5 L 85.5 22 L 91 25.5 L 86 38.5 L 85.5 57 L 85 51 Q 64.2 47.5 52 34.5 L 45 20.5 L 45 13.5 Q 47.6 6.1 53.5 2 L 58.5 0 Z " /><path fill="rgb(115,101,114)" stroke="rgb(115,101,114)" stroke-width="1" opacity="0.9764705882352941" d="M 42.5 41 L 43 43.5 L 42 43.5 L 42.5 41 Z " /><path fill="rgb(79,62,78)" stroke="rgb(79,62,78)" stroke-width="1" opacity="0.984313725490196" d="M 43.5 21 Q 47.3 19.8 46 23.5 L 49 30.5 L 58 43 L 63 46.5 L 61.5 49 L 56.5 50 Q 44.2 40.8 39 24.5 L 43.5 21 Z " /><path fill="rgb(97,82,96)" stroke="rgb(97,82,96)" stroke-width="1" opacity="0.996078431372549" d="M 37 25 L 40 26.5 Q 44.9 41.6 56.5 50 L 59 50.5 L 43 56 L 43 41.5 L 37 25 Z " /><path fill="rgb(97,82,96)" stroke="rgb(97,82,96)" stroke-width="1" opacity="0.996078431372549" d="M 53.5 36 Q 65.6 47.8 85 51 L 84.5 57 Q 68.7 51.9 58 43 L 53.5 36 Z " /><path fill="rgb(254,192,176)" stroke="rgb(254,192,176)" stroke-width="1" opacity="0.9725490196078431" d="M 20.5 1 Q 25.8 -0.3 27 2.5 L 42 39.5 L 42 57.5 L 41 60 L 33 61 L 34 66.5 L 43 87.5 L 40.5 92 L 35 93 Q 36.8 90.6 36 84.5 L 27 64.5 L 27 56 Q 34.2 57.5 36 52.5 L 36 39.5 L 20.5 1 Z " /><path fill="rgb(254,192,176)" stroke="rgb(254,192,176)" stroke-width="1" opacity="0.9725490196078431" d="M 115 1 Q 119.6 -0.3 121 2.5 L 106 38.5 L 106 64.5 L 97 87.5 L 92.5 93 L 87 91.5 L 90 89.5 L 99 67.5 L 99 40.5 L 115 1 Z " /><path fill="rgb(254,192,176)" stroke="rgb(254,192,176)" stroke-width="1" opacity="0.9725490196078431" d="M 93.5 47 L 96 48.5 L 96 59.5 L 94.5 61 L 92 60 L 92 48.5 L 93.5 47 Z " /><path fill="rgb(245,198,156)" stroke="rgb(245,198,156)" stroke-width="1" opacity="0.9098039215686274" d="M 33.5 61 L 34 63.5 L 33 63.5 L 33.5 61 Z " /><path fill="rgb(245,198,156)" stroke="rgb(245,198,156)" stroke-width="1" opacity="0.9098039215686274" d="M 94.5 61 L 95 63.5 L 94 63.5 L 94.5 61 Z " /><path fill="rgb(245,198,156)" stroke="rgb(245,198,156)" stroke-width="1" opacity="0.9098039215686274" d="M 40.5 98 L 44.5 103 L 40.5 98 Z " /><path fill="rgb(245,198,156)" stroke="rgb(245,198,156)" stroke-width="1" opacity="0.9098039215686274" d="M 87.5 98 L 83.5 103 L 87.5 98 Z " /><path fill="rgb(254,209,163)" stroke="rgb(254,209,163)" stroke-width="1" opacity="0.996078431372549" d="M 63.5 48 Q 72.2 54.3 84.5 57 L 89 60.5 L 89 75.5 L 90 76.5 L 88 76.5 L 89 78.5 Q 85.6 82.1 85.5 89 Q 84.3 86.8 83 89.5 L 75.5 98 L 64.5 103 L 50.5 103 Q 42.3 101.2 38 95.5 L 37 93.5 L 42 90.5 L 43 86.5 L 34 66.5 L 34 61 L 41 60 Q 39.9 57.3 42.5 58 Q 54.7 54.7 63.5 48 Z M 57 67 L 54 71 Q 47 72 46 70 L 46 68 L 42 68 L 43 72 L 48 75 Q 55 76 58 72 Q 59 68 57 67 Z M 72 67 Q 69 68 70 72 L 76 75 L 83 74 L 86 68 L 82 68 L 82 70 Q 81 73 75 71 L 72 67 Z M 60 80 L 60 83 Q 61 85 67 84 L 68 80 L 65 81 L 60 80 Z M 55 92 L 54 95 L 60 99 Q 71 101 74 95 L 73 92 L 68 95 L 61 95 Q 59 91 55 92 Z " /><path fill="rgb(251,184,129)" stroke="rgb(251,184,129)" stroke-width="1" opacity="0.984313725490196" d="M 42.5 44 L 43 55.5 L 42 55.5 L 42.5 44 Z " /><path fill="rgb(251,184,129)" stroke="rgb(251,184,129)" stroke-width="1" opacity="0.984313725490196" d="M 89 61 L 94 61 L 94 65.5 L 88.5 78 L 88 76.5 L 89 75.5 L 89 61 Z " /><path fill="rgb(251,184,129)" stroke="rgb(251,184,129)" stroke-width="1" opacity="0.984313725490196" d="M 56.5 67 Q 58.8 67.8 58 71.5 Q 55.5 76 47.5 75 L 43 71.5 L 42 68 L 46 68 L 46 69.5 Q 47.5 72.5 53.5 71 L 56.5 67 Z " /><path fill="rgb(251,184,129)" stroke="rgb(251,184,129)" stroke-width="1" opacity="0.984313725490196" d="M 71.5 67 L 74.5 71 Q 80.5 72.5 82 69.5 L 82 68 L 86 68 L 82.5 74 L 75.5 75 L 70 71.5 Q 69.3 67.8 71.5 67 Z " /><path fill="rgb(251,184,129)" stroke="rgb(251,184,129)" stroke-width="1" opacity="0.984313725490196" d="M 60 80 L 64.5 81 L 68 80 L 66.5 84 Q 61.3 85.3 60 82.5 L 60 80 Z " /><path fill="rgb(251,184,129)" stroke="rgb(251,184,129)" stroke-width="1" opacity="0.984313725490196" d="M 84.5 88 L 88.5 93 L 91 93.5 L 83 102.5 L 83 122.5 L 84 126.5 L 82.5 128 L 45.5 128 Q 43.3 127.3 44 123.5 L 45 122.5 L 45 102.5 L 42.5 99 Q 49.2 105.3 64.5 103 Q 76.7 99.7 83 90.5 L 84.5 88 Z " /><path fill="rgb(251,184,129)" stroke="rgb(251,184,129)" stroke-width="1" opacity="0.984313725490196" d="M 55 92 Q 59.2 91.2 60.5 95 L 67.5 95 L 73 92 L 74 94.5 Q 71 101 59.5 99 L 54 94.5 L 55 92 Z " /></svg>